<svg xmlns="http://www.w3.org/2000/svg" xmlns:xlink="http://www.w3.org/1999/xlink" fill="none" version="1.1" width="1080" height="1080" viewBox="0 0 1080 1080"><defs><clipPath id="master_svg0_1_0"><rect x="0" y="0" width="1080" height="1080" rx="0"/></clipPath><linearGradient x1="0" y1="0.5" x2="1" y2="0.5" id="master_svg1_1_818"><stop offset="0%" stop-color="#26ADE9" stop-opacity="1"/><stop offset="98.83113503456116%" stop-color="#1696E1" stop-opacity="1"/></linearGradient><linearGradient x1="0" y1="0.5" x2="1" y2="0.5" id="master_svg2_1_896"><stop offset="0%" stop-color="#0D559E" stop-opacity="1"/><stop offset="98.83113503456116%" stop-color="#0E4F94" stop-opacity="1"/></linearGradient><clipPath id="master_svg3_1_699"><rect x="256" y="293" width="424" height="462" rx="0"/></clipPath><filter id="master_svg4_1_702" filterUnits="objectBoundingBox" color-interpolation-filters="sRGB" x="-0.07075471698113207" y="-0.10638297872340426" width="1.1415094339622642" height="1.2553191489361701"><feFlood flood-opacity="0" result="BackgroundImageFix"/><feColorMatrix in="SourceAlpha" type="matrix" values="0 0 0 0 0 0 0 0 0 0 0 0 0 0 0 0 0 0 127 0"/><feOffset dy="5" dx="0"/><feGaussianBlur stdDeviation="7.5"/><feColorMatrix type="matrix" values="0 0 0 0 0 0 0 0 0 0 0 0 0 0 0 0 0 0 0.3499999940395355 0"/><feBlend mode="normal" in2="BackgroundImageFix" result="effect1_dropShadow"/><feBlend mode="normal" in="SourceGraphic" in2="effect1_dropShadow" result="shape"/></filter><linearGradient x1="0" y1="0.5" x2="1" y2="0.5" id="master_svg5_1_0086"><stop offset="0%" stop-color="#35C1F1" stop-opacity="1"/><stop offset="100%" stop-color="#2BB4EC" stop-opacity="1"/></linearGradient><filter id="master_svg6_1_0764" filterUnits="objectBoundingBox" color-interpolation-filters="sRGB" x="-0.07481296758104738" y="-0.11574074074074074" width="1.1496259351620948" height="1.2777777777777777"><feFlood flood-opacity="0" result="BackgroundImageFix"/><feColorMatrix in="SourceAlpha" type="matrix" values="0 0 0 0 0 0 0 0 0 0 0 0 0 0 0 0 0 0 127 0"/><feOffset dy="5" dx="0"/><feGaussianBlur stdDeviation="7.5"/><feColorMatrix type="matrix" values="0 0 0 0 0 0 0 0 0 0 0 0 0 0 0 0 0 0 0.3499999940395355 0"/><feBlend mode="normal" in2="BackgroundImageFix" result="effect1_dropShadow"/><feBlend mode="normal" in="SourceGraphic" in2="effect1_dropShadow" result="shape"/></filter><linearGradient x1="0" y1="0.5" x2="1" y2="0.5" id="master_svg7_1_0797"><stop offset="0%" stop-color="#24ABE8" stop-opacity="1"/><stop offset="100%" stop-color="#1696E1" stop-opacity="1"/></linearGradient></defs><g clip-path="url(#master_svg0_1_0)"><rect x="0" y="0" width="1080" height="1080" rx="0" fill="#FFFFFF" fill-opacity="0"/><g><g><rect x="156" y="249" width="634" height="470" rx="30" fill="url(#master_svg1_1_818)" fill-opacity="1"/></g><g><path d="M156 344C156 344 156 344 156 344L790 344C790 344 790 344 790 344L790 689C790 705.5685424949238 776.5685424949238 719 760 719L186 719C169.4314575050762 719 156 705.5685424949238 156 689Z" fill="url(#master_svg2_1_896)" fill-opacity="1"/></g><g clip-path="url(#master_svg3_1_699)"><g filter="url(#master_svg4_1_702)"><path d="M673.636,530.497L577.283,634.273C573.384,638.473,566.76,638.543,562.773,634.427L541.126,612.082C537.512,608.352,537.355,602.477,540.764,598.56L600.028,530.453C603.394,526.5840000000001,603.288,520.797,599.783,517.053L540.9110000000001,454.1809C537.404,450.4356,537.3009999999999,444.6437,540.672,440.77570000000003L562.8589999999999,415.31892C566.742,410.86291,573.623,410.72964,577.6759999999999,415.03191L673.587,516.835C677.196,520.6659999999999,677.2180000000001,526.639,673.636,530.497M336.2013,530.4449999999999L397.102,597.759C400.916,601.975,400.453,608.517,396.08500000000004,612.154L367.706,635.778C363.545,639.242,357.382,638.765,353.8036,634.701L261.99429,530.449C258.59334,526.588,258.67844,520.775,262.19099,517.014L357.432,415.04605C361.461,410.73298,368.329,410.82869,372.236,415.25234L394.79200000000003,440.7926C398.197,444.6478,398.122,450.457,394.619,454.223L336.29470000000003,516.926C332.76030000000003,520.725,332.7198,526.597,336.2013,530.4449999999999" fill="url(#master_svg5_1_0086)" fill-opacity="1" style="mix-blend-mode:passthrough"/></g></g><g filter="url(#master_svg6_1_0764)"><rect x="550" y="611" width="401" height="216" rx="20" fill="url(#master_svg7_1_0797)" fill-opacity="1"/></g><g><path d="M704,681.45Q690.2,681.45,682.475,691.5Q674.75,701.55,674.75,719.4Q674.75,737.4,682.175,747.3Q689.6,757.2,703.1,757.2Q709.4,757.2,714.35,755.175Q719.3,753.15,723.8,748.35L723.8,733.95L698.3,733.95L698.3,709.95L748.55,709.95L748.55,758.25Q739.7,770.1,728.15,775.95Q716.6,781.8,703.1,781.8Q686.6,781.8,674.075,774.15Q661.55,766.5,654.725,752.325Q647.9,738.15,647.9,719.4Q647.9,700.5,654.875,686.4Q661.85,672.3,674.525,664.575Q687.2,656.85,704,656.85Q719.15,656.85,730.625,663.825Q742.1,670.8,748.85,683.4L728.45,697.95Q724.55,690.45,717.8,685.95Q711.05,681.45,704,681.45ZM807.65,781.8Q791.15,781.8,778.85,773.625Q766.55,765.45,760.4,751.95L783.2,741.3Q786.35,749.4,792.8,753.6Q799.25,757.8,807.8,757.8Q816.65,757.8,821.9,754.5Q827.15,751.2,827.15,745.95Q827.15,742.2,825.2,739.725Q823.25,737.25,818.45,735.15Q813.65,733.05,804.5,730.5Q792.5,727.05,784.55,723.6Q776.6,720.15,770.525,712.875Q764.45,705.6,764.45,693.6Q764.45,683.1,770.375,674.7Q776.3,666.3,786.575,661.575Q796.85,656.85,809.3,656.85Q840.65,656.85,854.45,685.35L831.95,696.3Q828.05,688.2,822.425,684.525Q816.8,680.85,809,680.85Q801.5,680.85,796.4,684.15Q791.3,687.45,791.3,692.25Q791.3,696.3,793.4,698.775Q795.5,701.25,800.225,703.275Q804.95,705.3,814.25,707.85Q826.1,711.15,834.05,714.525Q842,717.9,848,725.175Q854,732.45,854,744.45Q854,755.7,848.075,764.175Q842.15,772.65,831.65,777.225Q821.15,781.8,807.65,781.8Z" fill="#FFFFFF" fill-opacity="1"/></g></g></g></svg>